HIERARCHY
ROOT Hips
{
  OFFSET 39.904 70.4701 -152.205
  CHANNELS 6 Xposition Yposition Zposition Zrotation Xrotation Yrotation
  JOINT RightUpLeg
  {
    OFFSET -8.9458 -8.66707 0.101652
    CHANNELS 3 Zrotation Xrotation Yrotation
    JOINT RightLeg
    {
      OFFSET 0 -44.4227 1.3727
      CHANNELS 3 Zrotation Xrotation Yrotation
      JOINT RightFoot
      {
        OFFSET 0.253549 -42.0924 -1.46059
        CHANNELS 3 Zrotation Xrotation Yrotation
        JOINT RightToes
        {
          OFFSET 0.04 -4.41509 8.4991
          CHANNELS 3 Zrotation Xrotation Yrotation
          End Site
          {
            OFFSET -0.08 -0.137448 9.77979
          }
        }
      }
    }
  }
  JOINT Spine
  {
    OFFSET 0 11.8905 0
    CHANNELS 3 Zrotation Xrotation Yrotation
    JOINT Spine1
    {
      OFFSET 0 25.6574 0.127663
      CHANNELS 3 Zrotation Xrotation Yrotation
      JOINT HEad
      {
        OFFSET 0 8.73416 0.011341
        CHANNELS 3 Zrotation Xrotation Yrotation
        End Site
        {
          OFFSET -0.29 12.7742 2.51395
        }
      }
      JOINT LeftShoulder1
      {
        OFFSET 8.99 -0.362252 -0.22
        CHANNELS 3 Zrotation Xrotation Yrotation
        JOINT LeftArm
        {
          OFFSET 10.2827 -0.00338 0.322123
          CHANNELS 3 Zrotation Xrotation Yrotation
          JOINT LeftForeArm
          {
            OFFSET 32.7669 0.099144 -1.42434
            CHANNELS 3 Zrotation Xrotation Yrotation
            JOINT LeftHand
            {
              OFFSET 27.5643 0.085362 1.02216
              CHANNELS 3 Zrotation Xrotation Yrotation
              End Site
              {
                OFFSET 16.7443 -0.6 1.50291
              }
            }
          }
        }
      }
      JOINT RightShoulder
      {
        OFFSET -8.99 -0.362252 -0.22
        CHANNELS 3 Zrotation Xrotation Yrotation
        JOINT RightArm
        {
          OFFSET -10.2827 -0.00338 0.322123
          CHANNELS 3 Zrotation Xrotation Yrotation
          JOINT RightForeArm
          {
            OFFSET -32.8971 0.099144 -1.42434
            CHANNELS 3 Zrotation Xrotation Yrotation
            JOINT RightHand
            {
              OFFSET -27.4921 0.085362 1.02216
              CHANNELS 3 Zrotation Xrotation Yrotation
              End Site
              {
                OFFSET -16.6312 -0.6 1.50291
              }
            }
          }
        }
      }
    }
  }
  JOINT LeftUpLeg
  {
    OFFSET 8.9458 -8.66707 0.101652
    CHANNELS 3 Zrotation Xrotation Yrotation
    JOINT LeftLeg
    {
      OFFSET 0 -44.4227 1.3727
      CHANNELS 3 Zrotation Xrotation Yrotation
      JOINT LeftFoot
      {
        OFFSET -0.253549 -42.0924 -1.46059
        CHANNELS 3 Zrotation Xrotation Yrotation
        JOINT LeftToes
        {
          OFFSET -0.04 -4.41509 8.4991
          CHANNELS 3 Zrotation Xrotation Yrotation
          End Site
          {
            OFFSET 0.08 -0.047448 9.77979
          }
        }
      }
    }
  }
}
MOTION
Frames:	14
Frame Time:	0.0166667
39.587 67.0602 -151.344 7.21461 -36.9324 -36.5421 -34.06 -26.8728 -36.9094 -101.975 41.3209 55.5813 84.5818 32.9825 -39.7436 0.0462048 0.000533403 0.662642 -11.6602 42.1383 17.3519 0.0167865 0.0210459 0.00305943 -35.1987 27.602 40.2691 -7.95139e-016 -1.19271e-015 -0 -138.615 -29.8696 -78.0023 -95.6261 44.171 -36.3051 20.8991 2.21259 -71.764 13.8906 16.059 14.2763 78.4671 17.7885 76.7408 72.6263 18.7849 46.0011 -4.46429 19.2651 45.953 2.56109 -19.6179 29.625 30.5381 41.8417 -16.5224 -11.9061 17.7493 2.26372 -1.88555e-008 1.55988e-007 -4.83939e-009 
39.5515 65.5719 -150.673 7.51721 -36.7777 -35.9954 -35.8524 -27.1648 -34.1035 -104.704 44.752 61.4964 82.3007 31.4649 -36.6707 0.0462048 0.000533403 0.662642 -11.7591 41.3775 16.6457 0.0176191 0.02397 0.0043697 -34.6961 27.3854 40.5322 -4.57205e-015 3.97569e-016 3.18055e-015 -138.148 -30.7284 -77.5047 -95.607 44.3146 -36.2607 20.7211 2.20692 -72.0184 14.2062 16.8816 14.5904 78.0488 17.2861 76.6351 72.8123 18.9849 46.1662 -4.33338 19.308 46.1048 3.0425 -21.8822 29.4997 32.2544 45.4329 -18.0321 -11.2907 16.4454 2.22078 -1.88555e-008 1.55988e-007 -4.83939e-009 
39.5574 64.4057 -149.845 7.84843 -36.5505 -35.3907 -37.4216 -27.1871 -31.8157 -107.236 47.3446 66.9138 80.4717 29.8684 -33.8856 0.0462048 0.000533403 0.662642 -11.7424 40.8237 15.8833 0.0179669 0.02263 0.00491956 -34.2672 26.9822 40.6013 -1.59028e-015 -1.19271e-015 -6.36111e-015 -137.95 -31.3548 -77.2806 -95.5475 44.3787 -36.2566 20.7137 2.14945 -72.213 14.2187 17.4703 15.0286 77.7717 16.7908 76.6635 72.93 19.0717 46.3398 -4.14058 19.2833 46.1133 3.98663 -24.1423 29.1761 34.5702 49.2838 -20.5433 -11.349 15.1606 2.35503 -1.88555e-008 1.55988e-007 -4.83939e-009 
39.5907 63.3314 -148.963 8.1694 -36.2588 -34.7536 -38.7783 -26.9796 -29.9535 -109.51 49.3053 71.8209 79.0712 28.2369 -31.2837 0.0462048 0.000533403 0.662642 -11.928 41.6097 15.4712 0.0172306 0.11531 0.0176295 -33.5654 25.4458 39.5485 6.55989e-015 -7.95139e-016 3.18055e-015 -138.495 -30.7222 -78.1156 -95.5426 44.4366 -36.2347 20.6065 2.20572 -72.4445 13.9498 16.5557 15.5717 77.563 16.4862 76.7654 72.9701 19.1318 46.4972 -3.85776 19.3409 46.2797 4.96022 -26.1693 28.5852 36.8771 52.8682 -23.0758 -11.5973 14.0827 2.44889 -1.88555e-008 1.55988e-007 -4.83939e-009 
39.7081 62.6513 -148.013 8.67737 -33.9257 -33.3691 -39.8254 -27.4492 -30.0553 -111.275 51.1549 75.982 77.8861 26.7197 -28.7089 0.0462048 0.000533403 0.662642 -10.1453 40.7068 13.7426 0.00765011 0.0119 0.00394981 -33.0453 24.091 38.6916 3.97569e-016 2.38542e-015 -0 -139.059 -30.2826 -78.895 -95.5481 44.4755 -36.2894 20.6948 2.37902 -72.4096 13.4522 15.8712 16.1636 77.5536 16.2921 76.9944 72.939 19.167 46.6332 -3.23736 19.4539 46.1136 6.53502 -29.5777 27.5513 36.5054 56.1425 -22.5632 -10.3367 13.2264 1.93356 -1.88555e-008 1.55988e-007 -4.8394e-009 
39.8267 62.0738 -147.062 9.03234 -31.929 -32.1559 -40.7738 -27.4092 -30.0213 -112.592 53.0728 79.5428 76.7763 25.2177 -26.0352 0.0462048 0.000533403 0.662642 -8.57567 39.9774 12.2502 0.00670009 0.00489 0.00327984 -32.6103 22.7215 37.8234 -5.96354e-015 -2.38542e-015 -3.18055e-015 -139.699 -29.829 -79.744 -95.5997 44.5615 -36.3495 20.7805 2.56933 -72.3079 12.8779 15.1376 16.6921 77.5885 16.2595 77.2943 72.845 19.236 46.7232 -2.94248 19.6727 46.1632 8.1921 -32.51 26.4583 36.4279 59.3806 -22.6321 -9.92545 12.3561 1.61412 -1.88555e-008 1.55988e-007 -4.8394e-009 
39.9457 61.9426 -146.058 9.24306 -30.1912 -31.0893 -41.6042 -26.8675 -29.7196 -113.278 55.3403 82.3559 75.6386 23.7205 -23.2345 0.0462048 0.000533403 0.662642 -7.17178 39.3572 10.9895 0.00615082 0.0046643 0.00283309 -32.2226 21.3918 36.9954 2.78299e-015 1.59028e-015 -0 -140.316 -29.4932 -80.6948 -95.4887 44.7186 -36.612 21.5568 3.14506 -71.5354 12.0322 14.3734 17.2129 77.8387 16.3417 77.753 72.575 19.4206 46.8051 -2.80906 20.1796 45.6115 9.71174 -34.8017 25.2133 35.6124 62.1999 -22.0323 -10.24 11.575 1.33804 -1.88555e-008 1.55988e-007 -4.8394e-009 
40.0324 61.8918 -145.079 9.30868 -28.6644 -30.1562 -42.3107 -25.9593 -29.1362 -113.464 57.9539 84.6335 74.5029 22.1324 -20.3641 0.0462048 0.000533403 0.662642 -5.90392 38.8135 9.95368 0.00570635 0.00437465 0.00243848 -31.8543 20.1009 36.2068 -1.59028e-015 -4.77083e-015 3.18055e-015 -140.88 -29.2864 -81.7247 -95.1892 45.0393 -36.9835 22.397 3.37494 -70.8217 11.1656 13.6222 17.6267 78.0835 16.4969 78.3252 72.0847 19.7888 46.8938 -3.42318 20.4358 45.5664 10.9571 -36.5038 23.7509 33.7211 64.5565 -20.4131 -10.4279 10.86 1.0603 -1.88555e-008 1.55988e-007 -4.83939e-009 
40.0897 62.3202 -144.006 9.23659 -27.254 -29.3408 -42.9457 -24.6608 -28.161 -112.881 61.2001 86.1953 73.275 20.4411 -17.4311 0.0462048 0.000533403 0.662642 -4.96122 37.8457 9.24725 0.00535194 0.00406891 0.00208947 -31.2872 19.1403 35.6802 -0 0 3.18055e-015 -140.985 -29.8809 -82.8332 -90.4213 48.7426 -40.6895 35.9952 14.0692 -64.5107 10.1477 13.0494 18.0367 78.7051 16.3248 79.2707 68.5894 24.2223 48.1684 -14.5594 32.5748 38.2732 11.8898 -37.5929 22.0325 30.4015 66.3398 -17.3235 -10.6973 10.1721 0.792121 -1.88555e-008 1.55988e-007 -4.83939e-009 
40.1043 62.8333 -142.913 9.04105 -25.9185 -28.6263 -43.5531 -23.0641 -26.6676 -111.595 65.2164 87.1986 71.9509 18.5856 -14.5061 0.0462048 0.000533403 0.662642 -4.31117 36.522 8.83761 0.00507285 0.00374931 0.00177952 -30.508 18.4388 35.3511 3.57812e-015 0 -3.18055e-015 -140.765 -30.7924 -84.0999 -81.7394 53.8519 -47.1829 30.5954 1.6543 -62.7365 9.51919 12.8017 18.4351 79.191 15.8118 80.2619 62.569 30.5276 50.6973 -12.5541 15.8522 42.3121 12.5596 -38.1729 20.126 25.9032 67.6031 -13.0546 -10.7555 9.40792 0.544155 -1.88555e-008 1.55988e-007 -4.83939e-009 
40.0994 63.8845 -141.633 8.3362 -22.6163 -27.6911 -43.3886 -21.979 -25.9386 -109.025 70.3806 87.0081 70.4124 16.5404 -11.6192 0.0462048 0.000533403 0.662642 -2.30623 33.3082 8.02615 0.00485435 0.00341809 0.00150211 -29.2389 16.395 34.9737 1.59028e-015 -1.59028e-015 -0 -142.118 -32.6157 -90.1289 -73.9545 56.2643 -52.0696 45.3309 14.7559 -50.8425 8.92162 12.5804 18.8119 80.0798 15.1661 81.3869 54.2831 37.2044 55.5106 -28.2551 27.3268 28.0023 14.209 -39.9469 18.0066 20.5101 68.3098 -7.87396 -10.7811 8.47363 0.326516 -1.88555e-008 1.55988e-007 -4.83939e-009 
40.0735 65.0064 -140.299 7.6155 -19.7222 -26.8681 -43.2051 -20.546 -24.0931 -103.841 76.5573 84.271 68.738 14.2386 -8.87576 0.0462048 0.000533403 0.662642 -0.698589 30.4825 7.53826 0.0046817 0.00307751 0.00125069 -27.7472 12.8752 34.3437 1.19271e-015 0 -3.18055e-015 -142.867 -34.1394 -94.3116 -62.0466 60.2153 -61.1546 46.6458 23.449 -46.2867 8.2684 12.1781 19.1034 81.0897 14.2962 82.7436 43.6175 43.2273 63.0425 -32.2548 31.4108 28.3968 15.5506 -41.0727 16.0074 14.8368 68.5413 -2.47251 -10.7092 7.28117 0.135453 -1.88555e-008 1.55988e-007 -4.83939e-009 
40.1147 66.8624 -138.617 6.8817 -17.129 -26.1591 -42.7477 -19.612 -21.4162 -82.6093 82.9861 65.2433 58.3931 11.4582 -5.22831 0.0462048 0.000533403 0.662642 0.602622 27.9343 7.31968 0.00454018 0.00272979 0.00101874 -26.3203 9.64924 33.7111 7.95139e-016 3.18055e-015 -0 -143.024 -35.3278 -97.3731 -44.614 63.7332 -75.3091 45.9495 4.59131 -35.4554 7.74309 11.604 19.3402 82.1946 13.2843 83.9265 30.3569 48.619 72.9447 -42.3412 24.7886 6.88161 16.4029 -41.3593 14.0918 9.26743 68.1394 2.81866 -10.6653 5.76437 -0.0182934 -1.88555e-008 1.55988e-007 -4.83939e-009 
40.2122 68.736 -136.921 6.13767 -14.7932 -25.5624 -42.2473 -18.5019 -17.7327 1.09795 85.1951 -16.6698 48.2009 8.37928 -2.69786 0.0462048 0.000533403 0.662642 1.66694 25.6244 7.32089 0.00441503 0.00237717 0.000799717 -24.9633 6.71922 33.0789 -4.37326e-015 0 -0 -142.704 -36.2411 -99.6642 -21.9186 65.2076 -94.3286 41.5848 23.7017 -24.9488 7.38837 11.0006 19.4345 83.2668 12.1729 84.9568 14.1336 52.9233 85.7992 -36.6328 13.5636 3.81048 17.0463 -41.1655 12.422 4.36379 67.3336 7.35775 -10.6503 3.9198 -0.165682 -1.88555e-008 1.55988e-007 -4.8394e-009 
